<?xml version="1.0" standalone="no"?>
<!DOCTYPE svg PUBLIC "-//W3C//DTD SVG 20010904//EN"
 "http://www.w3.org/TR/2001/REC-SVG-20010904/DTD/svg10.dtd">
<svg version="1.0" xmlns="http://www.w3.org/2000/svg"
 width="512.000000pt" height="512.000000pt" viewBox="0 0 512.000000 512.000000"
 preserveAspectRatio="xMidYMid meet">
<metadata>
Created by potrace 1.16, written by Peter Selinger 2001-2019
</metadata>
<g transform="translate(0.000000,512.000000) scale(0.100000,-0.100000)"
fill="#000000" stroke="none">
<path d="M586 4894 c-150 -33 -280 -107 -387 -222 -77 -82 -122 -156 -163
-265 -29 -79 -30 -89 -31 -242 0 -148 2 -166 27 -240 15 -44 44 -109 65 -145
37 -63 157 -194 218 -238 l30 -22 -30 -22 c-16 -11 -66 -58 -111 -102 -65 -66
-89 -100 -126 -176 -66 -135 -81 -208 -76 -366 5 -148 31 -243 95 -354 37 -63
157 -194 218 -238 l30 -22 -30 -22 c-16 -11 -66 -58 -111 -102 -65 -66 -89
-100 -126 -176 -66 -135 -81 -208 -76 -366 5 -148 31 -243 95 -353 77 -131
225 -261 360 -316 130 -53 165 -55 798 -55 503 0 590 2 615 15 37 19 50 43 50
95 0 52 -13 76 -50 95 -25 13 -109 15 -593 15 -358 0 -585 4 -623 11 -242 44
-434 273 -434 519 0 246 192 475 434 519 40 7 389 11 1059 11 l999 0 28 29
c52 51 52 111 0 162 l-28 29 -999 0 c-670 0 -1019 4 -1059 11 -242 44 -434
273 -434 519 0 246 192 475 434 519 41 8 571 11 1695 11 1381 0 1647 -3 1704
-15 186 -39 347 -189 401 -374 23 -77 21 -213 -4 -292 -10 -35 -35 -90 -54
-121 -45 -75 -52 -108 -31 -152 32 -67 124 -84 176 -32 70 71 131 218 150 364
34 256 -79 533 -280 682 -33 25 -60 47 -60 50 0 3 27 25 60 50 200 149 314
427 281 680 -28 208 -128 384 -285 504 -83 62 -143 94 -242 127 l-70 24 -1720
2 c-1494 1 -1729 0 -1789 -13z m3467 -219 c186 -39 347 -189 401 -374 21 -71
21 -211 0 -282 -54 -185 -215 -335 -401 -374 -57 -12 -323 -15 -1704 -15
-1124 0 -1654 3 -1695 11 -291 52 -492 361 -419 642 50 193 223 360 410 395
30 6 706 10 1695 11 1392 1 1655 -2 1713 -14z"/>
<path d="M832 4459 c-116 -45 -192 -163 -192 -299 0 -184 121 -310 305 -318
102 -5 175 21 238 81 64 63 91 126 95 222 5 106 -21 177 -88 245 -89 88 -235
116 -358 69z m177 -213 c67 -35 65 -143 -4 -174 -51 -23 -107 -7 -131 39 -47
91 44 182 135 135z"/>
<path d="M1917 4466 c-124 -45 -217 -176 -217 -306 0 -57 29 -142 66 -193 38
-52 107 -101 164 -117 55 -16 160 -12 215 7 73 26 156 111 185 188 30 81 25
187 -13 261 -33 64 -113 137 -174 158 -57 19 -174 20 -226 2z m175 -235 c27
-24 33 -36 33 -71 0 -35 -6 -47 -33 -71 -44 -40 -93 -40 -133 0 -62 62 -20
171 65 171 25 0 45 -9 68 -29z"/>
<path d="M832 3179 c-116 -45 -192 -163 -192 -299 0 -184 121 -310 305 -318
102 -5 175 21 238 81 64 63 91 126 95 222 5 106 -21 177 -88 245 -89 88 -235
116 -358 69z m177 -213 c67 -35 65 -143 -4 -174 -51 -23 -107 -7 -131 39 -47
91 44 182 135 135z"/>
<path d="M1917 3186 c-124 -45 -217 -176 -217 -306 0 -57 29 -142 66 -193 38
-52 107 -101 164 -117 55 -16 160 -12 215 7 73 26 156 111 185 188 30 81 25
187 -13 261 -33 64 -113 137 -174 158 -57 19 -174 20 -226 2z m175 -235 c27
-24 33 -36 33 -71 0 -35 -6 -47 -33 -71 -44 -40 -93 -40 -133 0 -62 62 -20
171 65 171 25 0 45 -9 68 -29z"/>
<path d="M3517 2546 c-54 -20 -111 -60 -140 -98 -27 -36 -1161 -1887 -1211
-1978 -29 -51 -31 -63 -31 -150 0 -84 3 -101 27 -146 34 -65 111 -134 174
-157 46 -16 132 -17 1291 -17 1230 0 1243 0 1297 21 108 40 187 148 194 266 9
129 37 77 -618 1150 -653 1069 -653 1069 -756 1106 -59 21 -172 22 -227 3z
m172 -233 c35 -33 1202 -1944 1209 -1979 2 -13 -1 -38 -8 -55 -26 -62 47 -59
-1269 -59 l-1201 0 -32 29 c-65 58 -94 4 561 1076 326 534 604 980 618 993 35
31 85 29 122 -5z"/>
<path d="M3549 1891 l-29 -29 0 -472 c0 -304 4 -478 10 -491 26 -47 118 -64
162 -29 48 37 49 46 46 532 l-3 457 -29 30 c-25 26 -37 31 -79 31 -40 0 -53
-5 -78 -29z"/>
<path d="M3549 611 c-24 -25 -29 -38 -29 -78 0 -41 5 -54 28 -77 37 -34 89
-43 130 -22 67 35 79 122 26 178 -23 23 -36 28 -77 28 -40 0 -53 -5 -78 -29z"/>
<path d="M832 1899 c-116 -45 -192 -163 -192 -299 0 -184 121 -310 305 -318
102 -5 175 21 238 81 64 63 91 126 95 222 5 106 -21 177 -88 245 -89 88 -235
116 -358 69z m177 -213 c67 -35 65 -143 -4 -174 -51 -23 -107 -7 -131 39 -47
91 44 182 135 135z"/>
<path d="M1917 1906 c-124 -45 -217 -176 -217 -306 0 -57 29 -142 66 -193 38
-52 107 -101 164 -117 55 -16 160 -12 215 7 73 26 156 111 185 188 30 81 25
187 -13 261 -33 64 -113 137 -174 158 -57 19 -174 20 -226 2z m175 -235 c27
-24 33 -36 33 -71 0 -35 -6 -47 -33 -71 -44 -40 -93 -40 -133 0 -62 62 -20
171 65 171 25 0 45 -9 68 -29z"/>
</g>
</svg>
